0.06m3min_grf.mot
version=1
nRows=25
nColumns 19
inDegrees=yes
endheader
time	1_ground_force_vx	1_ground_force_vy	1_ground_force_vz	1_ground_force_px	1_ground_force_py	1_ground_force_pz	1_ground_torque_x	1_ground_torque_y	1_ground_torque_z	2_ground_force_vx	2_ground_force_vy	2_ground_force_vz	2_ground_force_px	2_ground_force_py	2_ground_force_pz	2_ground_torque_x	2_ground_torque_y	2_ground_torque_z
            3.751500	           -0.592859	           -4.510689	            0.899273	           -0.233013	            0.005581	           -0.255695	           -0.956735	           -0.119463	           -0.286562	            0.922514	            4.232267	            1.844910	           -0.232311	            0.006130	           -0.833667	           -1.238294	           -0.393180	            0.319598
            3.752000	           -0.410233	           -5.410409	            0.528106	           -0.233013	            0.005581	           -0.255695	           -0.921898	           -0.174523	           -0.354226	            0.598634	            3.125524	            2.028819	           -0.232311	            0.006130	           -0.833667	           -1.163272	           -0.364416	            0.281967
            3.752500	           -0.363692	           -4.870980	            0.851303	           -0.233013	            0.005581	           -0.255695	           -0.917206	           -0.155922	           -0.371020	            0.459393	            2.756887	            1.980637	           -0.232311	            0.006130	           -0.833667	           -1.013269	           -0.297369	            0.187888
            3.753000	           -0.134543	           -4.510404	            0.852280	           -0.233013	            0.005581	           -0.255695	           -1.030331	           -0.127625	           -0.473646	            0.363679	            3.309161	            1.935720	           -0.232311	            0.006130	           -0.833667	           -0.938297	           -0.259018	            0.112590
            3.753500	           -0.041587	           -5.233415	            1.307519	           -0.233013	            0.005581	           -0.255695	           -0.993008	           -0.090747	           -0.432049	            0.417840	            1.283699	            1.928472	           -0.232311	            0.006130	           -0.833667	           -0.957168	           -0.230862	            0.150400
            3.754000	           -0.270835	           -5.053194	            1.308861	           -0.233013	            0.005581	           -0.255695	           -0.918078	            0.010840	           -0.441580	            0.278619	            0.914894	            1.927218	           -0.232311	            0.006130	           -0.833667	           -0.863019	           -0.296557	            0.112423
            3.754500	           -0.408005	           -5.774676	            1.397822	           -0.233013	            0.005581	           -0.255695	           -1.015348	           -0.017050	           -0.428498	            0.138631	            0.731075	            1.691980	           -0.232311	            0.006130	           -0.833667	           -0.787656	           -0.353136	            0.149889
            3.755000	           -0.454417	           -5.773702	            1.168657	           -0.233013	            0.005581	           -0.255695	           -0.968159	           -0.090775	           -0.487280	            0.232955	            0.547600	            1.597427	           -0.232311	            0.006130	           -0.833667	           -0.825320	           -0.334165	            0.093422
            3.755500	           -0.592158	           -5.232735	            1.125461	           -0.233013	            0.005581	           -0.255695	           -0.966362	           -0.183596	           -0.418374	            0.275714	            1.653496	            1.366709	           -0.232311	            0.006130	           -0.833667	           -0.656448	           -0.276906	            0.112403
            3.756000	           -0.134639	           -5.231073	            0.757476	           -0.233013	            0.005581	           -0.255695	           -0.913273	           -0.155416	           -0.455232	            0.280990	            0.180644	            1.267596	           -0.232311	            0.006130	           -0.833667	           -0.712743	           -0.305131	            0.018075
            3.756500	           -0.180857	           -5.050227	            0.620795	           -0.233013	            0.005581	           -0.255695	           -0.888584	           -0.072569	           -0.381707	           -0.001439	            0.547926	            1.269030	           -0.232311	            0.006130	           -0.833667	           -0.656525	           -0.257933	            0.093620
            3.757000	           -0.317783	           -5.231502	            0.849643	           -0.233013	            0.005581	           -0.255695	           -1.029810	           -0.035436	           -0.443449	           -0.139953	           -0.005361	            1.360975	           -0.232311	            0.006130	           -0.833667	           -0.637687	           -0.285820	           -0.019590
            3.757500	           -0.179865	           -4.871731	            1.034271	           -0.233013	            0.005581	           -0.255695	           -1.019127	           -0.016797	           -0.456342	           -0.089801	           -0.925766	            1.310741	           -0.232311	            0.006130	           -0.833667	           -0.675001	           -0.361443	           -0.057545
            3.758000	           -0.408769	           -5.953565	            1.076058	           -0.233013	            0.005581	           -0.255695	           -0.945413	           -0.035212	           -0.503936	            0.094940	           -0.188496	            1.313290	           -0.232311	            0.006130	           -0.833667	           -0.674933	           -0.380348	           -0.057612
            3.758500	           -0.545680	           -5.594240	            1.353081	           -0.233013	            0.005581	           -0.255695	           -0.957279	           -0.137106	           -0.472624	            0.094193	           -0.003679	            1.126235	           -0.232311	            0.006130	           -0.833667	           -0.506062	           -0.313905	            0.036803
            3.759000	           -0.363024	           -5.412760	            1.078263	           -0.233013	            0.005581	           -0.255695	           -0.945732	           -0.164599	           -0.502554	            0.048590	           -0.371475	            0.937228	           -0.232311	            0.006130	           -0.833667	           -0.525153	           -0.238082	           -0.038320
            3.759500	           -0.272120	           -4.870765	            0.805219	           -0.233013	            0.005581	           -0.255695	           -0.971602	           -0.165055	           -0.385813	            0.047844	           -0.186657	            0.750173	           -0.232311	            0.006130	           -0.833667	           -0.525331	           -0.199935	           -0.132436
            3.760000	           -0.227170	           -5.590050	            0.389310	           -0.233013	            0.005581	           -0.255695	           -1.047555	           -0.063144	           -0.439601	           -0.042718	           -1.106231	            0.324574	           -0.232311	            0.006130	           -0.833667	           -0.544178	           -0.171981	           -0.038076
            3.760500	           -0.180548	           -4.870551	            0.759136	           -0.233013	            0.005581	           -0.255695	           -0.932220	            0.020023	           -0.418804	           -0.231468	           -0.738443	            0.279040	           -0.232311	            0.006130	           -0.833667	           -0.487702	           -0.209454	           -0.075935
            3.761000	           -0.362782	           -4.872552	            1.218150	           -0.233013	            0.005581	           -0.255695	           -0.970606	           -0.007702	           -0.445444	           -0.044753	           -0.553451	            0.232689	           -0.232311	            0.006130	           -0.833667	           -0.525281	           -0.209522	           -0.094769
            3.761500	           -0.316840	           -5.413341	            1.215717	           -0.233013	            0.005581	           -0.255695	           -0.932596	           -0.118756	           -0.406445	           -0.084375	           -2.578582	            0.037769	           -0.232311	            0.006130	           -0.833667	           -0.506349	           -0.256516	           -0.151497
            3.762000	           -0.362880	           -4.331755	            1.220469	           -0.233013	            0.005581	           -0.255695	           -0.895601	           -0.174472	           -0.352374	           -0.278297	           -0.738780	            0.325988	           -0.232311	            0.006130	           -0.833667	           -0.393920	           -0.171237	           -0.094690
            3.762500	           -0.454596	           -5.412974	            1.124347	           -0.233013	            0.005581	           -0.255695	           -0.872413	           -0.211164	           -0.431653	            0.004899	           -1.291047	            0.558538	           -0.232311	            0.006130	           -0.833667	           -0.393741	           -0.218568	           -0.076009
            3.763000	           -0.318143	           -4.510046	            0.761023	           -0.233013	            0.005581	           -0.255695	           -0.951033	           -0.082044	           -0.349879	           -0.042074	           -1.290212	            0.276989	           -0.232311	            0.006130	           -0.833667	           -0.412534	           -0.218568	           -0.094851
            3.763500	           -0.226535	           -5.951564	            0.617044	           -0.233013	            0.005581	           -0.255695	           -0.944616	           -0.016657	           -0.496039	           -0.039621	           -2.025131	           -0.194920	           -0.232311	            0.006130	           -0.833667	           -0.525519	           -0.143354	           -0.094533
